<?xml version="1.0" encoding="utf-8"?>
<!-- Svg Vector Icons : http://www.onlinewebfonts.com/icon -->
<!DOCTYPE svg PUBLIC "-//W3C//DTD SVG 1.1//EN" "http://www.w3.org/Graphics/SVG/1.1/DTD/svg11.dtd">
<svg version="1.1" xmlns="http://www.w3.org/2000/svg" xmlns:xlink="http://www.w3.org/1999/xlink" x="0px" y="0px" viewBox="0 0 1000 1000" enable-background="new 0 0 1000 1000" xml:space="preserve">
<metadata> Svg Vector Icons : http://www.onlinewebfonts.com/icon </metadata>
<g fill="#00000"><path d="M714.6,196.3c-8.7-3.1-103.3-35.9-144.3-6.8c-43,30.6-40.7,128.8-36.5,129c93.9,6.6,178.5,35.3,243.6,78.7c5.9,4,62.1-45.5,123.2-35.3c61.1,10.3,103.4,69.4,85,133.1c-18.5,63.8-79,83.1-77.6,101.8c0.4,5.1,0.6,10.3,0.6,15.5c0,163.1-186.4,295.4-416.2,295.4c-229.9,0-416.2-132.2-416.2-295.4c0-8.2,0.5-16.3,1.4-24.3c0.1-0.9-42-25.5-58.6-63.5c-15.9-36.3-8.5-81.3,7.8-107.2c26-41.3,58.2-55.4,101.5-55.4c43.3,0,91.6,27.2,93.6,26c70.5-42.8,161.4-69.2,260.9-70.8c3.2-0.1-7.7-119,60.1-163.7c67.8-44.7,181.1,0,182.4,0c0.3,0,0.2,1-0.1,2.7c17.8-38,56-64.2,100.3-64.2c61.3,0,111,50.4,111,112.5s-49.7,112.5-111,112.5c-61.3,0-111-50.4-111-112.5C714.3,201.8,714.4,199.1,714.6,196.3L714.6,196.3z M658.8,598.5c30.7,0,55.5-25.2,55.5-56.3s-24.8-56.3-55.5-56.3s-55.5,25.2-55.5,56.3S628.2,598.5,658.8,598.5z M325.8,598.5c30.7,0,55.5-25.2,55.5-56.3s-24.8-56.3-55.5-56.3c-30.6,0-55.5,25.2-55.5,56.3S295.2,598.5,325.8,598.5z M506.2,734c-100.1,0-157.3-42.3-157.3-42.3c-4.5-2.9-10.1-1.4-12.6,3.4l-9.8,19.2c-2.4,4.8-1.2,11.5,3,14.9c0,0,49.3,50.6,176.7,50.6c127.4,0,173.6-54.3,173.6-54.3c3.7-3.6,4.2-10,1-14.4l-12.2-16.8c-3.2-4.4-9.1-5.3-13.7-2C654.9,692.2,606.3,734,506.2,734z M825.3,260.9c30.6,0,55.5-25.2,55.5-56.3c0-31.1-24.8-56.3-55.5-56.3c-30.7,0-55.5,25.2-55.5,56.3C769.8,235.7,794.7,260.9,825.3,260.9z"/></g>
</svg>